<svg width="256" height="256" viewBox="0 0 234.375 265.74310128341455" class="css-1j8o68f"><defs id="SvgjsDefs1378"></defs><g id="SvgjsG1379" featurekey="rootContainer" transform="matrix(4.725301111045653,0,0,4.725301111045653,0.0000347689931040783,0.019721259814305742)" fill="#111111"><path xmlns="http://www.w3.org/2000/svg" d="M23.11 55.78L1.69 43.41A3.39 3.39 0 0 1 0 40.48V15.75a3.39 3.39 0 0 1 1.69-2.94L23.11.45a3.39 3.39 0 0 1 3.39 0l21.41 12.37a3.39 3.39 0 0 1 1.69 2.94v24.72a3.39 3.39 0 0 1-1.69 2.94L26.5 55.78a3.39 3.39 0 0 1-3.39 0z"></path></g><g id="SvgjsG1380" featurekey="symbolFeature-0" transform="matrix(0.8000164798316616,0,0,0.8000164798316616,77.09083477213963,58.999019984084754)" fill="#fccde2"><g xmlns="http://www.w3.org/2000/svg"><path d="M42.817,43.713c-2.543,2.415-6.376,2.188-8.789-0.364c-2.29-2.409-2.315-6.254,0.228-8.663   c2.423-2.289,6.376-2.188,8.671,0.229C45.343,37.459,45.231,41.418,42.817,43.713 M64.765,66.849   c-2.54,2.409-6.379,2.181-8.68-0.233c-2.404-2.546-2.302-6.248,0.239-8.669c2.414-2.29,6.253-2.312,8.662,0.228   C67.282,60.595,67.18,64.553,64.765,66.849"></path><path d="M55.196,55.787c-3.024,2.871-7.598,2.592-10.315-0.273c-2.876-3.023-2.888-7.592,0.131-10.457   c2.871-2.728,7.586-2.603,10.446,0.422C58.187,48.355,58.061,53.06,55.196,55.787"></path><path d="M32.499,54.221c-1.902,1.801-5,1.607-6.809-0.301c-1.809-1.914-1.726-4.882,0.185-6.688   c1.905-1.811,4.998-1.856,6.806,0.052C34.493,49.191,34.41,52.41,32.499,54.221"></path><path d="M51.665,74.429c-1.902,1.812-4.875,1.731-6.681-0.171c-1.814-1.907-1.854-5.012,0.057-6.817   c1.902-1.816,5.126-1.72,6.932,0.183C53.783,69.531,53.573,72.624,51.665,74.429"></path><g><path d="M27.892,15.099c-0.84-0.883-0.803-2.37,0.213-3.338c0.889-0.843,2.375-0.809,3.224,0.08    c0.966,1.025,0.929,2.5,0.032,3.349C30.349,16.158,28.863,16.118,27.892,15.099"></path><path d="M11.468,30.494c-0.843-0.889-0.8-2.364,0.088-3.213c1.022-0.969,2.5-0.928,3.349-0.045    c0.962,1.02,0.925,2.506-0.094,3.474C13.92,31.553,12.434,31.52,11.468,30.494"></path><path d="M5.85,22.719c-0.689-0.723-0.655-1.93,0.065-2.619c0.832-0.792,2.042-0.764,2.729-0.029    c0.789,0.826,0.754,2.028-0.077,2.814C7.846,23.574,6.636,23.551,5.85,22.719"></path><path d="M20.732,8.207c-0.692-0.729-0.658-1.931,0.068-2.626c0.826-0.786,2.036-0.751,2.725-0.028    c0.786,0.832,0.752,2.039-0.077,2.825C22.726,9.067,21.516,9.039,20.732,8.207"></path><path d="M9.529,11.208c-0.846-0.894-0.803-2.381,0.08-3.229c0.889-0.837,2.381-0.797,3.232,0.097    c0.954,1.008,0.915,2.5,0.026,3.343C11.978,12.262,10.492,12.217,9.529,11.208"></path><path d="M35.521,23.949c-1.449-1.521-1.256-3.867,0.146-5.194c1.523-1.446,3.748-1.39,5.194,0.132    c1.327,1.406,1.267,3.633-0.25,5.074C39.206,25.299,36.851,25.356,35.521,23.949"></path><path d="M18.106,40.467c-1.444-1.521-1.384-3.754,0.137-5.195c1.401-1.32,3.753-1.389,5.2,0.137    c1.324,1.402,1.145,3.754-0.256,5.075C21.661,41.93,19.434,41.873,18.106,40.467"></path><path d="M16.221,20.811c-1.327-1.4-1.139-3.753,0.253-5.08c1.527-1.446,3.756-1.384,5.081,0.018    c1.453,1.521,1.396,3.753-0.134,5.199C20.023,22.275,17.671,22.338,16.221,20.811"></path><path d="M24.976,31.57c-1.8-1.902-1.598-4.99,0.305-6.807c1.917-1.811,4.89-1.726,6.692,0.183    c1.811,1.902,1.856,5.001-0.057,6.812C30.007,33.569,26.79,33.479,24.976,31.57"></path></g><g><path d="M84.46,72.595c0.871,0.866,2.357,0.854,3.337-0.142c0.866-0.872,0.854-2.358-0.017-3.219    c-1.003-0.985-2.478-0.979-3.344-0.103C83.457,70.123,83.457,71.604,84.46,72.595"></path><path d="M68.717,88.696c0.878,0.86,2.358,0.854,3.225-0.017c0.99-1.003,0.979-2.483,0.113-3.35    c-1.002-0.979-2.494-0.968-3.475,0.023C67.715,86.225,67.727,87.711,68.717,88.696"></path><path d="M76.378,94.478c0.712,0.7,1.919,0.694,2.626-0.012c0.809-0.809,0.797-2.021,0.085-2.723    c-0.814-0.803-2.021-0.803-2.831,0.012C75.563,92.467,75.563,93.675,76.378,94.478"></path><path d="M91.197,79.908c0.712,0.695,1.926,0.695,2.626-0.022c0.809-0.81,0.798-2.022,0.091-2.723    c-0.814-0.809-2.027-0.798-2.83,0.022C90.383,77.892,90.383,79.105,91.197,79.908"></path><path d="M87.957,91.043c0.883,0.854,2.369,0.849,3.234-0.022c0.86-0.866,0.854-2.364-0.022-3.224    c-0.991-0.98-2.483-0.975-3.349-0.103C86.96,88.565,86.978,90.058,87.957,91.043"></path><path d="M75.769,64.786c1.486,1.481,3.839,1.339,5.194-0.028c1.48-1.492,1.469-3.719-0.023-5.194    c-1.378-1.361-3.604-1.35-5.08,0.143C74.504,61.079,74.39,63.437,75.769,64.786"></path><path d="M58.887,81.856c1.492,1.48,3.719,1.464,5.206-0.029c1.35-1.378,1.458-3.719-0.034-5.199    c-1.379-1.355-3.726-1.23-5.081,0.147C57.509,78.273,57.52,80.501,58.887,81.856"></path><path d="M78.508,84.146c1.367,1.361,3.725,1.219,5.075-0.147c1.486-1.504,1.469-3.726,0.097-5.081    c-1.492-1.475-3.726-1.47-5.2,0.028C77.118,80.312,77.01,82.676,78.508,84.146"></path><path d="M67.92,75.164c1.868,1.851,4.967,1.708,6.823-0.16c1.846-1.868,1.822-4.841-0.046-6.691    c-1.868-1.852-4.966-1.96-6.812-0.086C66.029,70.101,66.052,73.318,67.92,75.164"></path></g><path d="M53.373,34.127c1.88-1.84,1.8-4.943-0.034-6.817c-1.845-1.88-4.812-1.913-6.692-0.073   c-1.882,1.834-2.042,4.926-0.205,6.806C48.282,35.922,51.505,35.961,53.373,34.127"></path><path d="M72.841,54.051c1.88-1.834,1.919-4.812,0.091-6.688c-1.845-1.885-4.943-2.039-6.823-0.205   c-1.879,1.834-1.913,5.059-0.079,6.938C67.863,55.976,70.961,55.891,72.841,54.051"></path><path d="M56.176,42.927c-2.409-2.546-2.188-6.384,0.364-8.788c2.415-2.289,6.254-2.312,8.669,0.229   c2.278,2.414,2.176,6.379-0.239,8.662C62.43,45.444,58.477,45.336,56.176,42.927 M33.041,64.866   c-2.407-2.54-2.179-6.379,0.236-8.663c2.54-2.414,6.256-2.318,8.663,0.223c2.292,2.415,2.315,6.259-0.225,8.668   C39.294,67.39,35.335,67.287,33.041,64.866"></path><g><path d="M84.79,27.999c0.889-0.843,2.381-0.798,3.338,0.21c0.843,0.895,0.797,2.376-0.08,3.219    c-1.02,0.975-2.506,0.934-3.349,0.04C83.73,30.453,83.776,28.967,84.79,27.999"></path><path d="M69.39,11.584c0.888-0.843,2.381-0.809,3.224,0.08c0.968,1.02,0.923,2.494,0.034,3.35    c-1.014,0.968-2.506,0.922-3.469-0.092C68.336,14.021,68.376,12.547,69.39,11.584"></path><path d="M77.17,5.957c0.723-0.689,1.936-0.655,2.625,0.068c0.786,0.832,0.758,2.034,0.023,2.723    C78.998,9.54,77.79,9.5,76.999,8.674C76.31,7.945,76.344,6.743,77.17,5.957"></path><path d="M91.682,20.834c0.729-0.684,1.937-0.654,2.626,0.068c0.78,0.832,0.752,2.045,0.028,2.729    c-0.832,0.785-2.039,0.752-2.825-0.074C90.827,22.833,90.851,21.62,91.682,20.834"></path><path d="M88.686,9.637c0.889-0.849,2.375-0.809,3.219,0.08c0.849,0.889,0.803,2.381-0.086,3.224    c-1.014,0.957-2.506,0.923-3.349,0.034C87.632,12.091,87.672,10.599,88.686,9.637"></path><path d="M75.939,35.625c1.515-1.44,3.873-1.253,5.2,0.148c1.44,1.521,1.384,3.742-0.143,5.194    c-1.396,1.327-3.623,1.265-5.075-0.257C74.595,39.316,74.538,36.952,75.939,35.625"></path><path d="M59.422,18.214c1.521-1.44,3.748-1.39,5.2,0.137c1.327,1.401,1.384,3.748-0.143,5.2c-1.4,1.327-3.747,1.145-5.074-0.256    C57.964,21.768,58.021,19.541,59.422,18.214"></path><path d="M79.071,16.328c1.407-1.332,3.76-1.139,5.093,0.257c1.446,1.521,1.378,3.753-0.018,5.081    c-1.532,1.446-3.759,1.395-5.2-0.137C77.619,20.133,77.557,17.775,79.071,16.328"></path><path d="M68.312,25.088c1.908-1.799,5.001-1.6,6.812,0.303c1.806,1.914,1.72,4.881-0.183,6.687    c-1.908,1.812-5.001,1.856-6.812-0.052C66.325,30.117,66.41,26.9,68.312,25.088"></path></g><g><path d="M27.291,84.562c-0.866,0.877-0.852,2.363,0.14,3.343c0.877,0.866,2.364,0.86,3.227-0.017    c0.988-0.997,0.977-2.483,0.105-3.344C29.766,83.564,28.285,83.564,27.291,84.562"></path><path d="M11.189,68.83c-0.854,0.872-0.854,2.358,0.022,3.219c1,0.99,2.48,0.979,3.349,0.107c0.985-0.996,0.968-2.483-0.02-3.474    C13.664,67.816,12.178,67.834,11.189,68.83"></path><path d="M5.408,76.485c-0.7,0.718-0.695,1.919,0.012,2.625c0.817,0.81,2.03,0.798,2.728,0.086c0.812-0.809,0.8-2.021-0.017-2.825    C7.422,75.671,6.211,75.677,5.408,76.485"></path><path d="M19.986,91.311c-0.701,0.712-0.698,1.914,0.014,2.62c0.812,0.803,2.022,0.798,2.725,0.091c0.8-0.82,0.8-2.027-0.02-2.824    C21.997,90.49,20.789,90.49,19.986,91.311"></path><path d="M8.849,88.075c-0.857,0.872-0.857,2.358,0.02,3.229c0.868,0.854,2.36,0.849,3.226-0.028    c0.971-0.991,0.968-2.483,0.103-3.349C11.323,87.073,9.834,87.085,8.849,88.075"></path><path d="M35.102,75.87c-1.478,1.492-1.341,3.845,0.029,5.2c1.5,1.48,3.725,1.469,5.2-0.023c1.361-1.378,1.347-3.604-0.148-5.08    C38.815,74.605,36.455,74.497,35.102,75.87"></path><path d="M18.033,58.994c-1.478,1.498-1.461,3.725,0.028,5.2c1.378,1.355,3.725,1.464,5.2-0.028    c1.355-1.373,1.23-3.726-0.143-5.081C21.624,57.61,19.388,57.621,18.033,58.994"></path><path d="M15.746,78.609c-1.364,1.373-1.222,3.73,0.146,5.086c1.495,1.476,3.722,1.464,5.081,0.098    c1.483-1.51,1.472-3.731-0.026-5.212C19.576,77.231,17.218,77.117,15.746,78.609"></path><path d="M24.719,68.027c-1.845,1.874-1.703,4.973,0.165,6.817c1.871,1.856,4.847,1.828,6.687-0.04    c1.851-1.868,1.962-4.966,0.094-6.812C29.791,66.142,26.57,66.165,24.719,68.027"></path></g></g></g><g id="SvgjsG1381" featurekey="nameFeature-0" transform="matrix(1.6304430304008861,0,0,1.6304430304008861,37.34166275658219,136.3668096273163)" fill="#fccde2"><path d="M24 11.428999999999998 l7.4286 0 l0 28.571 l-7.4286 0 l0 -16 l-5.0286 9.7143 l-3.7143 0 l-4.9714 -9.7143 l0 16 l-7.4286 0 l0 -28.571 l7.4286 0 l6.8571 12.971 z M37.99995714285714 35.7143 l0 -24.286 l7.4286 0 l0 22.286 l10.286 0 l0 -22.286 l7.4286 0 l0 24.286 l-4.2857 4.2857 l-16.571 0 z M69.71424285714286 40 l0 -24.286 l4.2857 -4.2857 l16.571 0 l4.2857 4.2857 l0 24.286 l-7.4286 0 l0 -8 l-10.286 0 l0 8 l-7.4286 0 z M77.14314285714286 25.714 l10.286 0 l0 -8 l-10.286 0 l0 8 z"></path></g></svg>